<?xml version="1.0" encoding="UTF-8" ?>
<!DOCTYPE svg PUBLIC "-//W3C//DTD SVG 1.1//EN" "http://www.w3.org/Graphics/SVG/1.1/DTD/svg11.dtd">
<svg width="97pt" height="89pt" viewBox="0 0 97 89" version="1.1" xmlns="http://www.w3.org/2000/svg">
<path fill="#ffffff" d=" M 0.00 0.00 L 97.00 0.00 L 97.00 89.00 L 0.00 89.00 L 0.00 0.00 Z" />
<path fill="#282c18" d=" M 3.43 12.51 C 5.84 9.51 7.19 5.72 9.89 2.96 C 13.64 3.39 16.03 7.58 19.92 7.96 C 26.62 8.68 33.37 8.42 40.10 8.43 C 41.95 8.77 44.18 8.77 45.64 10.04 C 46.76 12.88 46.85 15.97 46.90 18.98 C 46.97 25.68 47.08 32.38 46.84 39.08 C 46.91 41.29 45.42 42.99 44.15 44.62 C 34.44 44.55 24.73 44.55 15.03 44.35 C 12.17 44.32 10.46 41.75 8.69 39.89 C 8.96 37.91 8.62 35.95 8.24 34.02 C 8.18 29.67 8.52 25.33 8.57 20.99 C 7.51 18.96 5.11 17.98 3.29 16.67 C 3.31 15.28 3.36 13.90 3.43 12.51 Z" />
<path fill="#dee0b6" d=" M 4.26 15.14 C 5.92 11.19 8.35 7.64 10.83 4.16 C 12.64 4.71 13.96 6.79 12.50 8.42 C 10.41 11.27 9.76 14.91 7.37 17.56 C 6.33 16.75 5.29 15.95 4.26 15.14 Z" />
<path fill="#7f8e71" d=" M 14.84 8.90 C 12.88 6.15 18.09 8.15 14.84 8.90 Z" />
<path fill="#7f8e71" d=" M 14.71 12.31 C 15.83 11.08 16.32 9.40 17.64 8.33 C 17.68 9.61 17.71 10.89 17.74 12.17 L 16.92 12.26 C 16.77 12.70 16.45 13.58 16.29 14.02 C 16.15 14.56 15.87 15.65 15.73 16.19 C 15.61 16.34 15.37 16.65 15.25 16.81 C 13.89 17.11 13.34 17.99 13.60 19.44 C 13.91 21.83 8.99 19.71 10.98 17.90 C 11.92 17.06 12.90 16.25 13.75 15.32 C 13.86 14.71 14.10 13.51 14.21 12.90 C 14.34 12.75 14.59 12.45 14.71 12.31 Z" />
<path fill="#7f8e71" d=" M 14.03 8.00 L 14.84 8.90 C 14.81 9.75 14.74 11.46 14.71 12.31 C 14.59 12.45 14.34 12.75 14.21 12.90 C 12.69 13.73 11.44 15.02 10.71 16.61 C 9.58 13.54 12.96 10.80 14.03 8.00 Z" />
<path fill="#282c18" d=" M 56.73 10.70 C 57.72 8.80 60.11 8.49 62.05 8.53 C 70.69 8.57 79.33 8.77 87.97 8.71 C 90.54 8.45 93.36 10.23 93.49 12.94 C 94.19 23.14 95.42 33.87 91.66 43.65 C 80.48 44.19 69.26 44.99 58.07 44.15 C 57.50 43.27 56.76 42.56 55.86 42.02 C 54.96 31.61 53.78 20.91 56.73 10.70 Z" />
<path fill="#7f8e71" d=" M 17.74 12.17 C 18.21 10.86 19.11 9.99 20.44 9.54 C 20.30 10.45 20.02 12.27 19.87 13.17 C 18.14 15.93 16.77 18.88 15.46 21.86 C 15.05 22.19 14.21 22.84 13.80 23.17 C 13.75 22.24 13.65 20.38 13.60 19.44 C 14.80 19.21 15.35 18.33 15.25 16.81 C 15.37 16.65 15.61 16.34 15.73 16.19 C 16.03 15.91 16.64 15.35 16.94 15.07 L 16.29 14.02 C 16.65 13.56 17.37 12.63 17.74 12.17 Z" />
<path fill="#fcfbce" d=" M 23.63 10.24 C 30.46 10.81 37.88 8.90 44.29 11.79 C 45.52 15.03 45.27 18.59 45.35 22.00 C 45.18 28.31 45.82 34.63 44.97 40.91 C 43.70 41.62 42.57 42.84 41.04 42.90 C 33.66 43.19 26.27 43.14 18.88 42.97 C 16.32 43.00 13.92 42.02 11.54 41.19 C 10.69 34.52 10.69 27.76 10.43 21.05 C 11.51 21.82 12.63 22.53 13.80 23.17 C 19.01 24.92 23.00 29.29 28.43 30.39 C 33.05 30.44 37.67 30.54 42.25 31.26 C 37.96 26.19 36.44 19.12 30.98 15.03 C 28.62 13.30 25.99 11.98 23.63 10.24 Z" />
<path fill="#81c1e3" d=" M 57.83 11.78 C 60.68 10.28 63.91 10.26 67.04 10.41 C 65.00 12.60 61.74 14.25 61.34 17.50 C 61.21 17.53 60.97 17.60 60.84 17.63 L 59.95 17.77 C 60.87 15.90 61.90 14.09 62.98 12.31 C 61.99 12.39 60.03 12.56 59.05 12.64 C 59.17 13.16 59.39 14.20 59.51 14.71 C 58.92 15.73 58.33 16.75 57.75 17.78 C 58.30 17.78 59.40 17.77 59.95 17.77 C 59.85 18.20 59.66 19.08 59.56 19.51 C 57.26 25.28 57.71 32.31 61.95 37.07 C 63.48 39.08 65.91 40.32 67.05 42.61 C 63.93 42.86 60.77 42.84 57.73 42.01 C 56.36 31.98 56.51 21.81 57.83 11.78 Z" />
<path fill="#dee0b6" d=" M 61.34 17.50 C 64.22 14.76 66.93 11.30 71.11 10.62 C 78.72 8.91 89.07 13.30 89.48 22.02 C 90.40 27.44 87.03 32.25 83.06 35.54 C 80.41 35.64 77.26 36.11 75.63 33.49 C 73.77 33.87 71.89 34.44 69.98 34.20 C 68.52 33.63 67.51 32.36 66.31 31.40 C 66.44 27.63 67.03 23.58 70.05 20.96 C 72.14 18.27 76.50 18.41 78.28 21.36 C 79.46 20.41 81.54 20.19 82.10 21.95 C 81.24 25.53 79.79 28.95 79.07 32.57 C 79.80 32.68 81.27 32.90 82.00 33.01 C 85.18 30.18 87.22 25.79 86.17 21.52 C 84.69 16.58 79.40 12.98 74.25 13.62 C 71.37 14.17 68.27 14.94 66.33 17.34 C 60.63 22.78 61.14 34.02 68.44 37.86 L 68.82 38.07 C 72.71 40.66 77.21 39.25 81.40 38.53 L 81.81 37.17 C 82.82 38.07 83.64 39.45 83.10 40.84 C 78.43 43.65 72.15 43.28 67.40 40.76 C 63.35 38.01 59.51 34.08 58.76 29.04 C 57.94 25.82 59.61 22.72 59.56 19.51 C 59.88 19.04 60.52 18.10 60.84 17.63 C 60.97 17.60 61.21 17.53 61.34 17.50 Z" />
<path fill="#81c1e3" d=" M 82.80 10.41 C 85.79 10.14 88.80 10.39 91.61 11.50 C 92.85 21.29 93.13 31.33 91.06 41.03 C 89.55 43.04 86.62 42.51 84.43 42.93 L 83.97 42.16 C 84.25 40.51 83.35 38.60 84.57 37.18 C 83.56 37.27 82.58 37.15 81.65 36.84 L 80.97 36.55 C 83.96 36.24 85.77 33.85 88.05 32.23 C 87.11 34.27 86.00 36.24 85.21 38.34 C 86.82 36.16 88.58 34.09 90.41 32.09 C 89.82 32.12 88.64 32.20 88.05 32.23 C 90.17 27.52 91.45 21.86 88.60 17.14 C 87.63 14.12 84.31 13.04 82.80 10.41 Z" />
<path fill="#282c18" d=" M 14.21 12.90 C 14.34 12.75 14.59 12.45 14.71 12.31 C 14.59 12.45 14.34 12.75 14.21 12.90 Z" />
<path fill="#282c18" d=" M 16.92 12.26 L 17.74 12.17 C 17.37 12.63 16.65 13.56 16.29 14.02 C 16.45 13.58 16.77 12.70 16.92 12.26 Z" />
<path fill="#dda05a" d=" M 21.02 11.23 C 25.04 12.92 28.96 14.94 32.45 17.57 C 34.09 18.73 35.24 21.00 34.02 22.87 C 33.69 23.32 33.03 24.21 32.71 24.66 C 32.63 25.22 32.48 26.35 32.40 26.91 C 31.71 27.83 31.05 28.76 30.42 29.71 C 24.59 29.31 20.19 24.83 15.46 21.86 C 16.77 18.88 18.14 15.93 19.87 13.17 C 20.16 12.69 20.74 11.72 21.02 11.23 Z" />
<path fill="#282c18" d=" M 10.71 16.61 C 11.44 15.02 12.69 13.73 14.21 12.90 C 14.10 13.51 13.86 14.71 13.75 15.32 C 12.90 16.25 11.92 17.06 10.98 17.90 C 10.91 17.58 10.78 16.93 10.71 16.61 Z" />
<path fill="#282c18" d=" M 32.70 13.27 C 34.19 13.81 35.65 14.45 37.08 15.12 C 37.15 15.29 37.28 15.62 37.35 15.78 C 38.25 17.99 39.64 19.99 40.44 22.24 C 40.16 22.47 39.59 22.93 39.31 23.17 C 37.60 19.53 35.68 16.03 32.70 13.27 Z" />
<path fill="#282c18" d=" M 59.05 12.64 C 60.03 12.56 61.99 12.39 62.98 12.31 C 61.90 14.09 60.87 15.90 59.95 17.77 C 59.40 17.77 58.30 17.78 57.75 17.78 C 58.33 16.75 58.92 15.73 59.51 14.71 C 59.39 14.20 59.17 13.16 59.05 12.64 Z" />
<path fill="#282c18" d=" M 66.33 17.34 C 68.27 14.94 71.37 14.17 74.25 13.62 C 79.40 12.98 84.69 16.58 86.17 21.52 C 87.22 25.79 85.18 30.18 82.00 33.01 C 81.27 32.90 79.80 32.68 79.07 32.57 C 79.79 28.95 81.24 25.53 82.10 21.95 C 81.54 20.19 79.46 20.41 78.28 21.36 C 76.50 18.41 72.14 18.27 70.05 20.96 C 67.03 23.58 66.44 27.63 66.31 31.40 C 64.52 26.39 67.45 20.41 72.39 18.59 C 74.41 17.88 76.41 18.77 78.26 19.52 C 79.86 19.71 81.83 19.77 82.73 21.36 C 82.50 25.17 80.04 28.53 80.28 32.44 C 84.30 30.54 86.71 25.85 85.63 21.49 C 84.09 16.72 79.03 13.40 74.01 14.28 C 64.50 14.84 60.25 28.04 65.91 35.02 C 66.69 36.01 67.56 36.95 68.44 37.86 C 61.14 34.02 60.63 22.78 66.33 17.34 Z" />
<path fill="#282c18" d=" M 15.73 16.19 C 15.87 15.65 16.15 14.56 16.29 14.02 L 16.94 15.07 C 16.64 15.35 16.03 15.91 15.73 16.19 Z" />
<path fill="#282c18" d=" M 37.08 15.12 C 38.06 12.59 41.34 17.14 39.83 18.39 C 38.76 17.79 37.93 16.93 37.35 15.78 C 37.28 15.62 37.15 15.29 37.08 15.12 Z" />
<path fill="#84621b" d=" M 21.11 15.24 C 24.99 16.07 28.49 18.05 32.01 19.80 C 31.56 19.97 30.67 20.32 30.23 20.50 C 27.06 18.99 24.11 17.05 21.11 15.24 Z" />
<path fill="#fcfbce" d=" M 37.08 15.12 C 37.15 15.29 37.28 15.62 37.35 15.78 C 37.28 15.62 37.15 15.29 37.08 15.12 Z" />
<path fill="#81c1e3" d=" M 65.91 35.02 C 60.25 28.04 64.50 14.84 74.01 14.28 C 79.03 13.40 84.09 16.72 85.63 21.49 C 86.71 25.85 84.30 30.54 80.28 32.44 C 80.04 28.53 82.50 25.17 82.73 21.36 C 81.83 19.77 79.86 19.71 78.26 19.52 C 76.41 18.77 74.41 17.88 72.39 18.59 C 67.45 20.41 64.52 26.39 66.31 31.40 C 67.39 35.36 71.69 34.72 74.87 34.73 C 76.93 35.98 79.25 36.63 81.65 36.84 C 78.12 39.70 72.97 38.85 68.82 38.07 L 68.44 37.86 C 67.56 36.95 66.69 36.01 65.91 35.02 Z" />
<path fill="#7f8e71" d=" M 10.21 16.26 L 10.71 16.61 C 10.78 16.93 10.91 17.58 10.98 17.90 C 9.52 20.63 7.54 16.51 10.21 16.26 Z" />
<path fill="#282c18" d=" M 15.25 16.81 C 15.37 16.65 15.61 16.34 15.73 16.19 C 15.61 16.34 15.37 16.65 15.25 16.81 Z" />
<path fill="#282c18" d=" M 13.60 19.44 C 13.34 17.99 13.89 17.11 15.25 16.81 C 15.35 18.33 14.80 19.21 13.60 19.44 Z" />
<path fill="#282c18" d=" M 60.84 17.63 C 60.97 17.60 61.21 17.53 61.34 17.50 C 61.21 17.53 60.97 17.60 60.84 17.63 Z" />
<path fill="#84621b" d=" M 19.04 18.23 C 22.92 19.58 26.61 21.46 30.16 23.52 C 25.90 24.06 22.31 20.52 19.04 18.23 Z" />
<path fill="#282c18" d=" M 59.95 17.77 L 60.84 17.63 C 60.52 18.10 59.88 19.04 59.56 19.51 C 59.66 19.08 59.85 18.20 59.95 17.77 Z" />
<path fill="#84621b" d=" M 17.71 20.84 C 21.47 22.35 25.64 23.91 28.29 27.11 C 24.40 25.78 20.84 23.46 17.71 20.84 Z" />
<path fill="#282c18" d=" M 70.74 23.62 C 71.79 21.32 74.96 20.15 76.83 22.24 C 79.62 25.05 76.13 28.37 74.86 31.02 C 74.24 32.60 72.34 32.43 71.01 32.95 C 67.88 30.70 69.24 26.45 70.74 23.62 Z" />
<path fill="#dee0b6" d=" M 33.41 25.11 C 34.42 24.18 35.14 23.01 35.79 21.82 C 36.45 23.31 37.17 24.79 37.91 26.25 C 37.35 27.38 36.83 28.52 36.32 29.67 C 34.86 29.68 33.42 29.86 32.00 30.20 C 31.67 28.25 33.51 27.01 33.41 25.11 Z" />
<path fill="#282c18" d=" M 42.26 22.46 C 43.91 21.94 44.46 22.47 43.92 24.06 C 42.26 24.61 41.70 24.07 42.26 22.46 Z" />
<path fill="#81c1e3" d=" M 74.42 22.07 C 75.32 23.01 77.22 23.85 76.49 25.44 C 75.85 28.25 73.81 32.53 70.23 30.91 C 70.29 29.00 70.71 27.16 71.53 25.44 L 73.42 25.95 C 73.06 25.24 72.35 23.83 71.99 23.13 C 72.67 23.32 74.03 23.72 74.71 23.91 L 74.42 22.07 Z" />
<path fill="#282c18" d=" M 14.63 25.72 C 17.99 27.17 21.33 28.71 24.65 30.26 C 24.70 30.62 24.80 31.34 24.86 31.70 C 23.11 31.23 21.37 29.13 19.56 30.16 L 19.95 29.22 C 18.12 28.17 15.82 27.59 14.63 25.72 Z" />
<path fill="#7f8e71" d=" M 17.78 31.05 C 16.34 29.88 18.90 29.56 19.56 30.16 C 22.74 31.66 19.11 33.03 17.78 31.05 Z" />
<path fill="#282c18" d=" M 88.05 32.23 C 88.64 32.20 89.82 32.12 90.41 32.09 C 88.58 34.09 86.82 36.16 85.21 38.34 C 86.00 36.24 87.11 34.27 88.05 32.23 Z" />
<path fill="#282c18" d=" M 13.39 33.02 C 14.23 31.91 16.30 33.20 15.40 34.39 C 14.58 35.49 12.48 34.21 13.39 33.02 Z" />
<path fill="#282c18" d=" M 14.41 36.56 C 14.93 36.62 15.96 36.75 16.48 36.81 C 16.30 37.84 16.08 38.85 15.81 39.86 C 14.72 39.05 14.34 37.88 14.41 36.56 Z" />
<path fill="#282c18" d=" M 34.86 36.37 C 36.40 35.75 36.94 36.27 36.48 37.94 C 34.90 38.63 34.36 38.10 34.86 36.37 Z" />
<path fill="#282c18" d=" M 38.63 40.50 C 37.30 39.30 39.37 36.62 40.69 38.30 C 42.38 39.66 40.04 41.68 38.63 40.50 Z" />
<path fill="#282c18" d=" M 21.07 39.09 C 24.43 39.22 19.54 42.04 21.07 39.09 Z" />
<path fill="#282c18" d=" M 18.99 50.18 C 23.34 50.18 27.69 49.01 32.01 49.99 C 37.30 50.74 43.96 48.37 48.08 52.81 C 49.02 56.47 48.89 60.31 48.58 64.06 C 48.20 68.61 48.61 73.19 48.07 77.73 C 48.55 77.80 49.52 77.92 50.00 77.99 C 49.57 78.06 48.70 78.19 48.27 78.26 C 48.69 80.84 48.39 84.30 45.61 85.44 C 39.31 87.65 32.52 86.63 25.98 86.90 C 21.00 86.47 15.66 87.18 11.00 85.08 C 6.89 80.22 8.77 73.60 9.13 67.88 C 10.02 65.37 6.37 63.59 7.88 61.07 C 9.52 57.86 9.08 53.72 11.99 51.20 C 14.11 50.01 16.66 50.43 18.99 50.18 Z" />
<path fill="#282c18" d=" M 72.59 49.69 C 75.72 49.20 78.83 50.25 81.99 50.00 C 85.87 50.18 89.96 49.57 93.66 51.04 C 94.09 53.69 95.19 56.27 94.89 59.00 C 94.45 67.92 95.20 76.99 93.01 85.73 C 90.72 86.36 88.38 86.91 85.98 86.80 C 80.63 86.61 75.27 87.16 69.93 86.74 C 65.54 86.39 60.85 87.23 56.81 85.04 C 54.20 77.98 55.88 70.33 55.58 62.99 C 56.05 59.05 55.42 54.83 57.45 51.24 C 62.30 49.45 67.56 50.42 72.59 49.69 Z" />
<path fill="#81c1e3" d=" M 15.44 52.09 C 24.60 52.10 33.90 50.80 42.96 52.78 C 44.00 53.24 45.02 53.74 46.01 54.29 C 45.60 55.39 45.18 56.49 44.76 57.58 C 41.23 57.89 39.87 61.90 37.51 64.05 C 37.39 63.53 37.15 62.50 37.02 61.99 C 38.96 61.56 39.68 59.63 40.14 57.93 C 40.51 57.47 40.51 57.47 40.14 57.93 C 39.57 58.16 38.43 58.64 37.86 58.88 C 38.15 57.56 38.45 56.25 38.73 54.93 C 36.05 56.00 34.59 58.40 34.06 61.14 C 35.33 60.40 36.60 59.64 37.86 58.88 C 37.34 59.85 37.06 60.89 37.02 61.99 C 34.69 61.49 35.30 64.63 37.17 64.66 C 35.75 66.65 34.49 68.83 32.45 70.26 C 32.61 68.03 32.15 65.88 30.95 63.98 C 28.38 63.22 25.16 61.76 22.96 64.10 C 21.23 65.18 20.90 67.24 20.51 69.06 C 18.46 66.48 17.13 63.42 14.98 60.91 C 13.32 58.78 10.54 56.80 11.80 53.72 C 13.06 53.30 14.30 52.79 15.44 52.09 Z" />
<path fill="#fcfbce" d=" M 58.58 52.44 C 65.55 51.05 72.82 51.33 79.93 51.74 C 84.14 52.06 88.71 50.25 92.65 52.36 C 93.89 55.76 93.18 59.44 93.30 62.98 C 92.93 70.47 94.19 78.21 91.28 85.36 C 87.12 85.69 82.96 85.47 78.80 85.18 C 81.08 82.31 84.30 80.06 85.53 76.46 C 88.98 68.67 83.99 59.00 76.04 56.52 C 71.62 55.41 66.51 55.90 62.96 58.97 C 60.40 60.87 58.99 63.83 56.78 66.05 C 57.68 61.55 56.04 56.50 58.58 52.44 Z" />
<path fill="#495d58" d=" M 24.10 53.05 C 25.81 52.48 26.40 52.97 25.85 54.54 C 24.14 55.11 23.56 54.61 24.10 53.05 Z" />
<path fill="#495d58" d=" M 28.17 53.38 C 29.36 52.38 31.72 54.02 30.45 55.35 C 29.32 56.61 26.81 54.66 28.17 53.38 Z" />
<path fill="#282c18" d=" M 64.01 53.46 C 65.43 52.82 65.90 53.20 65.41 54.59 C 63.95 55.28 63.49 54.90 64.01 53.46 Z" />
<path fill="#282c18" d=" M 59.58 54.59 C 61.90 52.88 62.62 57.52 60.08 57.33 C 59.13 56.58 58.97 55.67 59.58 54.59 Z" />
<path fill="#495d58" d=" M 16.54 55.60 C 19.19 53.94 19.35 58.81 21.65 59.51 C 20.95 60.07 20.21 60.57 19.48 61.08 L 18.72 60.16 C 17.91 58.77 15.64 57.41 16.54 55.60 Z" />
<path fill="#495d58" d=" M 34.06 61.14 C 34.59 58.40 36.05 56.00 38.73 54.93 C 38.45 56.25 38.15 57.56 37.86 58.88 C 36.60 59.64 35.33 60.40 34.06 61.14 Z" />
<path fill="#282c18" d=" M 82.37 56.11 C 87.00 58.42 90.17 63.79 89.44 68.98 C 87.71 68.01 88.04 65.82 87.48 64.16 C 86.80 60.93 84.21 58.69 82.37 56.11 Z" />
<path fill="#495d58" d=" M 14.64 57.50 C 14.14 56.99 14.14 56.99 14.64 57.50 Z" />
<path fill="#495d58" d=" M 23.35 56.95 C 24.96 56.41 25.50 56.97 24.99 58.65 C 23.41 59.16 22.87 58.59 23.35 56.95 Z" />
<path fill="#495d58" d=" M 40.14 57.93 C 40.51 57.47 40.51 57.47 40.14 57.93 Z" />
<path fill="#fbf409" d=" M 44.66 59.38 C 45.25 58.44 45.83 57.50 46.40 56.56 C 46.42 57.11 46.44 58.23 46.45 58.79 C 43.10 63.89 40.20 69.41 35.64 73.59 C 32.30 76.25 32.20 80.85 30.62 84.52 C 26.81 84.49 23.00 84.51 19.18 84.49 C 19.64 81.46 20.25 78.45 20.71 75.41 C 17.54 71.54 14.28 67.74 11.05 63.92 C 9.79 62.52 10.31 60.51 10.99 58.97 C 15.32 62.79 17.88 68.05 21.29 72.60 C 21.96 72.64 23.31 72.72 23.98 72.76 C 23.42 71.54 22.55 70.42 22.41 69.05 C 22.76 67.37 23.87 65.99 24.66 64.51 C 26.58 64.48 28.89 64.07 30.23 65.83 C 31.72 67.57 30.40 69.90 29.40 71.54 C 30.87 71.67 32.34 71.80 33.82 71.92 C 37.11 67.53 39.89 62.33 44.66 59.38 Z" />
<path fill="#dda05a" d=" M 71.90 57.03 C 73.79 57.37 75.69 57.71 77.58 58.05 C 76.05 61.99 74.09 65.80 73.93 70.12 C 73.40 70.26 72.34 70.55 71.81 70.69 C 71.93 66.14 71.71 61.58 71.90 57.03 Z" />
<path fill="#282c18" d=" M 87.03 58.56 C 87.31 58.17 87.85 57.41 88.13 57.03 C 89.16 58.62 90.37 60.25 90.11 62.28 C 88.94 61.16 87.98 59.86 87.03 58.56 Z" />
<path fill="#495d58" d=" M 14.64 57.50 C 16.33 57.68 17.35 59.31 18.72 60.16 C 18.74 60.93 18.79 62.45 18.82 63.22 C 16.68 62.26 14.33 59.96 14.64 57.50 Z" />
<path fill="#495d58" d=" M 37.86 58.88 C 38.43 58.64 39.57 58.16 40.14 57.93 C 39.68 59.63 38.96 61.56 37.02 61.99 C 37.06 60.89 37.34 59.85 37.86 58.88 Z" />
<path fill="#7f8e71" d=" M 60.25 58.22 C 60.82 58.80 60.82 58.80 60.25 58.22 Z" />
<path fill="#dda05a" d=" M 66.07 59.04 C 66.63 57.16 69.26 57.49 70.76 56.99 C 70.93 61.36 71.35 65.74 71.15 70.11 C 70.71 70.36 69.83 70.87 69.38 71.12 C 68.98 66.92 67.98 62.82 66.07 59.04 Z" />
<path fill="#dda05a" d=" M 57.20 70.52 C 57.37 65.65 60.74 62.01 64.21 59.01 C 67.18 61.98 67.87 66.22 67.97 70.24 C 64.40 70.65 60.79 70.59 57.20 70.52 Z" />
<path fill="#dda05a" d=" M 74.59 70.50 C 75.22 66.51 76.78 62.76 78.77 59.27 C 82.94 61.45 85.68 65.51 86.25 70.16 C 82.36 70.18 78.46 70.14 74.59 70.50 Z" />
<path fill="#495d58" d=" M 37.17 64.66 C 35.30 64.63 34.69 61.49 37.02 61.99 C 37.15 62.50 37.39 63.53 37.51 64.05 L 37.17 64.66 Z" />
<path fill="#84621b" d=" M 63.35 64.38 C 64.80 63.28 65.91 65.83 64.52 66.59 C 63.03 67.83 61.93 65.14 63.35 64.38 Z" />
<path fill="#81c1e3" d=" M 37.01 74.10 C 40.13 71.24 42.80 67.92 45.79 64.92 C 45.73 69.29 45.65 73.66 46.02 78.01 C 46.19 80.24 45.71 83.33 43.23 84.10 C 40.09 84.79 36.84 84.76 33.65 84.46 C 34.49 80.96 33.72 76.48 37.01 74.10 Z" />
<path fill="#84621b" d=" M 79.07 65.13 C 80.47 64.62 80.95 65.07 80.53 66.47 C 79.13 67.01 78.64 66.56 79.07 65.13 Z" />
<path fill="#81c1e3" d=" M 11.15 67.11 C 14.08 69.47 16.52 72.35 18.93 75.22 C 18.47 78.34 17.84 81.43 17.17 84.51 C 14.76 84.61 11.73 83.66 11.27 80.94 C 10.63 76.39 9.95 71.63 11.15 67.11 Z" />
<path fill="#dda05a" d=" M 57.53 71.84 C 60.88 71.64 64.22 71.48 67.56 71.18 C 68.15 74.21 67.50 77.25 67.36 80.29 C 68.39 77.63 68.57 74.76 69.21 72.00 C 69.72 71.86 70.75 71.56 71.26 71.42 C 71.15 75.93 70.75 80.44 70.83 84.96 C 69.17 84.87 67.51 84.65 65.92 84.12 C 66.25 83.01 66.57 81.91 66.88 80.80 C 66.23 81.75 65.59 82.70 64.96 83.66 C 60.44 81.58 57.48 76.81 57.53 71.84 Z" />
<path fill="#dda05a" d=" M 71.74 71.37 C 72.29 71.48 73.38 71.72 73.92 71.83 C 75.04 76.02 76.24 80.19 77.97 84.18 C 75.96 84.66 73.93 85.06 71.90 85.40 C 71.69 80.72 71.89 76.04 71.74 71.37 Z" />
<path fill="#dda05a" d=" M 74.51 71.48 C 78.28 71.52 82.05 71.56 85.82 71.49 C 85.01 75.80 83.43 81.91 78.50 82.95 C 76.91 79.22 75.28 75.48 74.51 71.48 Z" />
<path fill="#495d58" d=" M 14.11 73.44 C 15.26 72.83 16.93 74.59 15.98 75.62 C 14.85 76.16 13.33 74.46 14.11 73.44 Z" />
<path fill="#495d58" d=" M 37.07 77.89 C 38.25 75.86 38.99 72.54 42.02 73.01 C 41.67 73.49 40.97 74.43 40.61 74.90 C 39.57 75.54 38.08 76.49 38.57 77.95 C 38.19 77.93 37.44 77.91 37.07 77.89 Z" />
<path fill="#84621b" d=" M 78.34 74.32 C 79.95 73.83 80.52 74.40 80.04 76.03 C 78.42 76.51 77.86 75.95 78.34 74.32 Z" />
<path fill="#84621b" d=" M 82.21 74.22 C 83.64 73.74 84.09 74.21 83.58 75.61 C 82.16 76.08 81.70 75.61 82.21 74.22 Z" />
<path fill="#495d58" d=" M 12.38 75.22 C 13.87 74.88 16.40 76.80 15.85 78.47 C 14.30 78.89 12.28 76.73 12.38 75.22 Z" />
<path fill="#81c1e3" d=" M 38.57 77.95 C 38.08 76.49 39.57 75.54 40.61 74.90 C 41.05 76.27 40.19 78.12 38.57 77.95 Z" />
<path fill="#495d58" d=" M 40.61 74.90 C 41.11 75.17 42.10 75.70 42.60 75.96 C 41.52 77.29 40.45 78.61 39.38 79.94 C 39.18 79.44 38.77 78.44 38.57 77.95 C 40.19 78.12 41.05 76.27 40.61 74.90 Z" />
<path fill="#84621b" d=" M 62.13 75.18 C 65.45 75.31 60.63 78.20 62.13 75.18 Z" />
<path fill="#84621b" d=" M 64.18 77.30 C 65.79 76.69 66.38 77.21 65.93 78.85 C 64.31 79.45 63.73 78.93 64.18 77.30 Z" />
<path fill="#7f8e71" d=" M 88.21 77.25 C 89.84 76.69 90.34 77.24 89.71 78.89 C 88.08 79.47 87.58 78.92 88.21 77.25 Z" />
<path fill="#fcfbce" d=" M 57.08 77.99 C 59.17 80.35 61.59 82.42 63.44 84.98 C 61.38 85.18 58.43 86.15 57.36 83.65 C 57.09 81.77 57.13 79.88 57.08 77.99 Z" />
<path fill="#84621b" d=" M 79.28 79.07 C 82.30 77.58 79.50 82.36 79.28 79.07 Z" />
<path fill="#495d58" d=" M 38.06 82.30 C 40.08 82.15 44.07 79.23 44.13 82.99 C 42.39 83.19 40.65 83.43 38.94 83.79 C 38.72 83.41 38.28 82.67 38.06 82.30 Z" />
<path fill="#84621b" d=" M 74.06 81.32 C 77.42 81.22 72.69 84.36 74.06 81.32 Z" />
<path fill="#282c18" d=" M 84.51 81.34 C 85.03 81.36 86.07 81.40 86.59 81.43 C 86.45 81.94 86.17 82.98 86.03 83.49 C 84.60 83.40 84.09 82.68 84.51 81.34 Z" />
<path fill="#282c18" d=" M 88.23 81.48 C 89.58 81.17 90.10 81.71 89.79 83.12 C 88.45 83.44 87.93 82.90 88.23 81.48 Z" />
<path fill="#282c18" d=" M 68.21 82.26 C 68.81 82.81 68.81 82.81 68.21 82.26 Z" />
</svg>
